PathFileType	4	(X/Y/Z)	C:\Users\WrightLab\Desktop\Jo\P1.2Trial33.trc
DataRate	CameraRate	NumFrames	NumMarkers	Units	OrigDataRate	OrigDataStartFrame	OrigNumFrames
100.00	100.00	       19	19	mm	100.00	575	       766
Frame#	Time	Headset_Front			Headset_Back			Headset_Left			Headset_Right			Left_Shoulder			Right_Shoulder			Sternum			C7			Left Elbow			Right Elbow			Left Wrist			Right Wrist			Left ASIS			Right ASIS			S2			Left Knee			Right Knee			Left Ankle			Right Ankle			
		X1	Y1	Z1	X2	Y2	Z2	X3	Y3	Z3	X4	Y4	Z4	X5	Y5	Z5	X6	Y6	Z6	X7	Y7	Z7	X8	Y8	Z8	X9	Y9	Z9	X10	Y10	Z10	X11	Y11	Z11	X12	Y12	Z12	X13	Y13	Z13	X14	Y14	Z14	X15	Y15	Z15	X16	Y16	Z16	X17	Y17	Z17	X18	Y18	Z18	X19	Y19	Z19	

575	5.740				-607.78967	1485.15686	-837.27826	-443.90915	1375.21191	-953.66504	-669.52399	1401.94116	-974.29413	-804.81256	1201.76404	-885.61798	-380.41058	1216.24963	-825.93921	-576.82446	1144.88794	-977.16046	-608.29211	1273.50513	-751.16956	-848.10327	915.88324	-830.33740	-307.86893	976.31274	-747.36377	-915.26898	713.45123	-914.29840	-218.16760	727.34180	-786.27991	-699.41473	828.29950	-981.29926				-611.36426	870.18402	-689.31696	-774.22394	399.51138	-975.40155	-448.00842	415.67551	-977.77252	-831.07922	195.19290	-647.76752				
576	5.750				-604.40259	1486.54370	-844.63837	-442.72116	1375.43652	-964.07617	-665.82709	1403.42908	-982.22595	-802.41559	1203.07764	-893.68994	-377.04929	1219.32813	-835.75006	-573.87689	1147.06494	-985.37427	-606.03180	1274.78271	-758.34723	-845.21320	916.51093	-839.46472	-304.84644	978.19678	-755.88739	-910.59229	714.76550	-926.10205	-214.47929	729.11914	-800.00995	-695.57367	829.74420	-990.95142				-608.51575	870.90747	-698.23804				-443.95895	415.07523	-980.82318	-827.24982	196.68051	-670.99115				
577	5.760	-497.09036	1323.53833	-1093.38855	-601.36859	1487.56799	-852.10333	-435.91205	1378.01697	-964.73218	-662.33929	1404.88354	-989.97491	-800.18884	1204.06763	-901.51532	-374.76151	1221.39587	-841.54797	-571.06451	1148.48486	-992.41730	-603.09674	1275.93384	-765.37921	-844.14734	917.15729	-848.74219	-300.83228	980.44922	-764.40790	-906.47266	715.50677	-937.62262	-211.52429	731.12860	-812.63580	-691.85260	830.78510	-999.72229				-605.08258	872.46075	-708.68622				-439.71472	413.43021	-982.67194	-824.25311	197.76292	-695.87616				
578	5.770				-599.75726	1490.35449	-859.87585	-432.79214	1378.27832	-971.82892	-658.76520	1406.41809	-997.27118	-797.15942	1205.05127	-909.35211	-371.60776	1223.26208	-847.54596	-568.20575	1150.28601	-1000.60120	-601.64490	1276.22534	-772.72546	-841.45215	917.30035	-857.93091	-297.35815	982.02069	-772.22894	-902.67664	716.12872	-948.97137	-208.09903	734.30963	-825.97388	-688.02081	832.53961	-1009.78796				-602.03326	872.88043	-716.79968				-434.90216	411.80286	-984.72064	-821.08636	197.53221	-721.66583				
579	5.780				-596.50787	1490.11584	-865.89191	-430.42886	1378.89233	-979.33759	-655.39758	1407.68176	-1004.58447	-793.66418	1205.88977	-916.81946	-368.92151	1225.73669	-855.03876	-565.10394	1152.27576	-1007.51544	-597.81683	1276.89258	-780.13397	-839.92499	918.06830	-868.14160	-293.23578	984.60059	-780.35822	-898.38281	717.18195	-962.35876	-203.73555	737.21954	-837.07794	-684.10303	834.21729	-1018.67627				-598.34454	873.43787	-726.79034	-739.97614	421.76147	-1081.49451	-430.50223	409.90469	-985.94623	-817.89160	196.33441	-747.64642				
580	5.790				-594.69672	1492.48181	-873.81012	-424.89832	1381.09070	-981.97180	-652.12531	1409.04932	-1012.52313	-790.71527	1206.10706	-923.13055	-366.88824	1228.61328	-863.24091	-562.13373	1153.75989	-1015.45337	-595.91583	1277.50964	-788.08612	-838.20837	918.10272	-876.92761	-289.80258	986.07397	-787.81342	-894.35083	717.83752	-975.17792	-200.50642	739.40735	-848.95496	-680.15594	836.07233	-1028.31458				-594.77881	872.98157	-736.24060				-426.37411	408.56879	-988.06433	-814.08185	194.04402	-775.81958				
581	5.800	-481.64737	1329.39136	-1121.30957	-592.37823	1493.40637	-880.43860	-421.95932	1382.63049	-988.62738	-648.93268	1410.19275	-1019.97461	-788.40167	1206.48987	-930.39984	-363.33273	1229.81702	-868.88495	-558.73712	1155.67749	-1022.79364	-594.13562	1277.85596	-794.49725	-836.15167	917.66559	-886.43475	-286.67987	987.56042	-794.66644	-890.22217	718.44891	-988.11340	-196.69374	741.49908	-860.44653	-676.36456	837.47858	-1037.63708				-591.67938	873.86121	-746.12238				-421.96143	406.79419	-988.51489	-810.42584	190.62202	-803.63330				
582	5.810	-477.62109	1331.35999	-1127.74646	-590.20758	1494.01270	-887.48334	-422.21252	1382.16748	-998.25110	-645.85449	1411.28552	-1027.37915	-785.68481	1207.16882	-938.31378	-361.26181	1231.47644	-874.92627	-555.32129	1157.63672	-1030.88123	-591.47980	1278.90100	-801.66119	-834.11255	917.74438	-895.76984	-283.70874	989.08813	-801.62701	-886.02429	718.28912	-999.64227	-194.23273	743.52075	-870.43573	-672.68109	838.56952	-1047.55042	-396.60123	840.50140	-1018.68945	-588.74414	873.58063	-754.58936				-417.47311	405.99603	-990.36334	-805.29950	185.39198	-831.82886				
583	5.820				-588.13306	1494.38159	-894.07428	-417.37427	1384.62732	-1002.29755	-642.91083	1411.99475	-1034.27234	-783.29675	1207.25024	-945.51965	-358.58319	1233.04175	-881.41541	-551.88580	1159.04956	-1037.69031	-589.63855	1278.77734	-808.23413	-832.71747	918.00238	-904.82941	-279.78488	990.83411	-808.62811	-881.74323	719.33545	-1013.48041	-190.86852	744.96198	-879.99420	-668.69055	839.95325	-1057.64783				-585.77374	873.53918	-762.90991				-413.60901	404.92661	-992.61627	-800.70221	180.07645	-860.42908	-498.62274	50.59550	-956.51001	
584	5.830				-586.20715	1495.01819	-900.66351	-414.73587	1385.60583	-1008.88116	-639.85565	1413.13367	-1042.15393	-781.02386	1207.37378	-952.87885	-356.13754	1233.97339	-885.63672	-548.40875	1160.42004	-1045.16541	-587.58020	1279.69312	-816.73328	-830.50208	918.17188	-914.43347	-277.35040	992.02264	-815.47937	-877.81952	719.28503	-1025.17712	-187.63068	746.58636	-890.23389	-664.34216	841.07141	-1067.00183				-582.91003	873.86340	-779.60266				-409.97406	404.45432	-993.43512	-797.67010	176.71599	-890.45624	-496.48001	50.78520	-955.20465	
585	5.840				-584.16962	1495.40942	-907.51068	-412.64621	1386.06458	-1015.18359	-636.83392	1413.97595	-1049.02625	-777.61041	1207.36877	-960.55847	-353.54947	1236.46497	-895.67523	-544.69678	1161.62170	-1051.98657	-585.43433	1279.50964	-822.58331	-827.50116	918.24762	-924.02509	-274.32782	993.54895	-821.38074	-873.81140	720.44531	-1039.12451	-184.67986	748.32318	-899.30164							-580.10254	874.92432	-779.59979				-406.06033	403.18604	-994.99792	-791.58411	169.84567	-920.24316	-496.90646	50.01338	-954.05164	
586	5.850				-582.23602	1495.50330	-914.00677	-408.62625	1387.91895	-1020.92377	-634.03540	1414.29932	-1055.84045	-774.30243	1207.25500	-968.57825	-349.86279	1235.66589	-897.42181	-540.98425	1162.60559	-1059.09363	-584.18878	1280.04846	-829.96161	-824.70074	917.89526	-933.55438	-270.86328	994.26459	-827.75684	-869.17334	721.90497	-1054.50757	-182.46635	749.44244	-908.46320							-578.30225	874.82458	-788.16620				-402.68109	402.03940	-996.03479				-496.77902	48.24880	-952.23096	
587	5.860	-459.50620	1337.87292	-1160.44739	-580.38025	1495.79785	-921.01868				-631.14679	1414.86182	-1063.54028	-771.34747	1206.77795	-976.13501	-347.96304	1236.75610	-903.45905	-537.27374	1163.76428	-1066.59814	-581.19714	1279.25586	-836.77527	-822.64417	916.87982	-941.99329	-269.17410	994.79047	-833.69312	-865.08679	722.17950	-1067.04590	-181.27164	749.45667	-915.98077	-650.24493	848.37738	-1110.62549				-577.39587	874.41760	-795.87366				-399.37167	401.00381	-997.55334				-493.91052	47.77127	-951.66711	
588	5.870				-578.33789	1495.61426	-927.05731				-628.29907	1415.11572	-1070.26855	-768.99603	1206.70142	-984.05713	-345.13049	1237.62524	-910.44604	-533.65918	1164.29199	-1073.14453	-580.19067	1279.51306	-843.73840	-820.13721	917.20996	-951.55688	-265.84561	995.77740	-839.58453	-860.62469	723.18109	-1081.09326	-177.31517	750.58118	-924.33368	-645.10760	848.98163	-1119.78369				-575.89905	873.82416	-806.96198				-396.22363	399.84302	-998.40991				-492.53952	47.59575	-951.72021	
589	5.880				-576.58716	1495.48840	-933.81757				-625.56964	1414.99670	-1076.88464	-766.00592	1206.11902	-991.81561	-343.11435	1237.98853	-915.50391	-530.03387	1165.06653	-1080.59656	-577.17517	1278.96802	-850.87146	-816.44897	915.76526	-960.92834	-262.79639	996.00684	-846.74463	-856.62860	722.48608	-1092.02332	-174.87860	750.47125	-932.14178	-639.78058	849.66272	-1129.89783				-574.36053	873.06659	-813.98077				-393.50415	398.42450	-998.80566				-493.14856	45.98977	-950.33405	
590	5.890				-574.45874	1495.47522	-939.88025				-622.78534	1414.98608	-1084.28894	-762.92609	1205.38550	-1000.15411	-340.68655	1239.33276	-924.67719	-526.33875	1165.63721	-1087.34668	-575.29517	1278.76318	-857.58203	-813.42310	915.56464	-971.42285	-259.84036	996.38824	-852.87860	-852.24200	724.27454	-1107.64099	-172.83417	751.08667	-940.49487	-634.36108	849.99835	-1139.64709				-574.25751	872.90375	-824.08142				-390.15616	397.13806	-999.62622				-493.75958	43.44970	-948.24957	
591	5.900				-572.38715	1495.47766	-947.22272				-619.91248	1415.00842	-1091.00159	-760.06378	1204.92969	-1007.97058	-338.67902	1238.73169	-928.00732	-522.85321	1165.80786	-1094.56995	-573.61615	1277.90735	-863.91016	-808.52466	913.44855	-980.94543	-257.61984	996.13599	-858.68085	-848.78064	723.34460	-1118.15332	-170.85966	750.53473	-946.06055							-573.79620	873.29486	-835.03668				-386.73541	396.03067	-1001.56653				-493.51276	43.35179	-948.34686	
592	5.910				-570.42804	1494.76782	-953.18158				-617.23615	1414.32983	-1097.67261	-757.21692	1204.48657	-1015.80310	-335.84576	1237.23303	-930.13599	-519.27716	1166.03638	-1101.20825	-571.22406	1277.21301	-870.42542	-805.72717	913.26996	-990.85608	-256.06857	995.43774	-864.47839	-844.39807	725.18689	-1133.41772	-169.84557	750.24664	-954.35803							-572.43365	871.57135	-842.65613				-383.72406	395.13776	-1003.06451				-494.75363	42.15414	-948.91827	
593	5.920				-568.55182	1494.03479	-960.11969				-614.40277	1413.99622	-1105.00049	-754.33301	1203.20947	-1024.15710	-333.76529	1237.85681	-938.22913	-515.66425	1166.45898	-1108.58008	-569.45898	1277.27161	-878.29828	-801.91125	911.96680	-1001.51282	-252.96840	995.31781	-870.86121	-840.75543	724.38214	-1143.87830	-167.47433	749.88684	-961.46155	-617.54364	849.91492	-1167.12915				-572.05878	871.68372	-849.51239				-378.84277	393.92868	-1004.97009							
